<svg xmlns="http://www.w3.org/2000/svg" xmlns:xlink="http://www.w3.org/1999/xlink" width="500" zoomAndPan="magnify" viewBox="0 0 375 374.999991" height="500" preserveAspectRatio="xMidYMid meet" version="1.0"><defs><g/><clipPath id="f1e8dd0ef9"><path d="M 65.652344 167.34375 L 309.347656 167.34375 L 309.347656 207.65625 L 65.652344 207.65625 Z M 65.652344 167.34375 " clip-rule="nonzero"/></clipPath></defs><g fill="#080b1c" fill-opacity="1"><g transform="translate(104.424636, 253.124983)"><g><path d="M 53.027344 -33.203125 C 53.027344 -27.050781 49.21875 -21.386719 42.675781 -21.386719 C 36.035156 -21.386719 32.226562 -27.050781 32.226562 -33.203125 L 32.226562 -131.34375 C 32.226562 -133.394531 31.640625 -135.152344 29.296875 -135.152344 L 8.691406 -135.152344 C 7.324219 -135.152344 6.152344 -133.394531 6.152344 -131.34375 L 6.152344 -31.738281 C 6.152344 -12.988281 23.046875 2.148438 42.578125 2.148438 C 62.109375 2.148438 79.097656 -12.988281 79.097656 -31.738281 L 79.097656 -131.246094 C 79.097656 -133.199219 78.121094 -135.152344 75.976562 -135.152344 L 56.152344 -135.152344 C 54.101562 -135.152344 53.027344 -133.296875 53.027344 -131.246094 Z M 53.027344 -33.203125 "/></g></g></g><g fill="#080b1c" fill-opacity="1"><g transform="translate(199.676421, 253.124983)"><g><path d="M 66.015625 0 C 67.773438 0 68.75 -1.171875 68.75 -3.515625 L 68.75 -20.214844 C 68.75 -22.558594 67.773438 -23.535156 66.015625 -23.535156 L 33.007812 -23.535156 L 33.007812 -131.34375 C 33.007812 -133.6875 32.03125 -135.152344 29.785156 -135.152344 L 10.253906 -135.152344 C 8.105469 -135.152344 7.03125 -133.6875 7.03125 -131.34375 L 7.03125 -3.710938 C 7.03125 -1.367188 8.105469 0 10.351562 0 Z M 66.015625 0 "/></g></g></g><g clip-path="url(#f1e8dd0ef9)"><path fill="#ffffff" d="M 65.652344 167.34375 L 309.316406 167.34375 L 309.316406 207.953125 L 65.652344 207.953125 Z M 65.652344 167.34375 " fill-opacity="1" fill-rule="nonzero"/></g><g fill="#080b1c" fill-opacity="1"><g transform="translate(102.440821, 193.874987)"><g><path d="M 4.769531 -2.988281 C 4.769531 -2.433594 4.429688 -1.925781 3.839844 -1.925781 C 3.242188 -1.925781 2.898438 -2.433594 2.898438 -2.988281 L 2.898438 -11.816406 C 2.898438 -12 2.847656 -12.160156 2.636719 -12.160156 L 0.78125 -12.160156 C 0.660156 -12.160156 0.554688 -12 0.554688 -11.816406 L 0.554688 -2.855469 C 0.554688 -1.167969 2.074219 0.191406 3.832031 0.191406 C 5.585938 0.191406 7.117188 -1.167969 7.117188 -2.855469 L 7.117188 -11.808594 C 7.117188 -11.984375 7.027344 -12.160156 6.835938 -12.160156 L 5.050781 -12.160156 C 4.867188 -12.160156 4.769531 -11.992188 4.769531 -11.808594 Z M 4.769531 -2.988281 "/></g></g></g><g fill="#080b1c" fill-opacity="1"><g transform="translate(119.378644, 193.874987)"><g><path d="M 5.710938 -6.105469 C 6.640625 -6.878906 7.1875 -8.03125 7.1875 -9.523438 L 7.1875 -11.78125 C 7.1875 -11.9375 7.105469 -12.160156 6.871094 -12.160156 L 5.246094 -12.160156 C 5.042969 -12.160156 4.839844 -12.019531 4.839844 -11.753906 L 4.839844 -9.785156 C 4.839844 -8.300781 4.417969 -7.273438 2.96875 -7.152344 L 2.96875 -11.816406 C 2.96875 -12.027344 2.882812 -12.160156 2.679688 -12.160156 L 0.929688 -12.160156 C 0.738281 -12.160156 0.632812 -12.027344 0.632812 -11.816406 L 0.632812 -0.332031 C 0.632812 -0.121094 0.730469 0 0.929688 0 L 2.6875 0 C 2.890625 0 2.96875 -0.121094 2.96875 -0.332031 L 2.96875 -4.945312 C 4.515625 -4.875 4.964844 -3.832031 4.964844 -2.3125 L 4.964844 -0.394531 C 4.964844 -0.132812 5.15625 0 5.359375 0 L 6.992188 0 C 7.222656 0 7.308594 -0.210938 7.308594 -0.367188 L 7.308594 -2.582031 C 7.308594 -4.136719 6.722656 -5.332031 5.710938 -6.105469 Z M 5.710938 -6.105469 "/></g></g></g><g fill="#080b1c" fill-opacity="1"><g transform="translate(136.360377, 193.874987)"><g><path d="M 4.859375 -7.527344 C 4.859375 -6.933594 4.488281 -6.535156 3.785156 -6.535156 L 2.96875 -6.535156 L 2.96875 -10.023438 L 3.847656 -10.023438 C 4.453125 -10.023438 4.859375 -9.621094 4.859375 -8.988281 Z M 6.808594 -0.0078125 C 7.046875 -0.0078125 7.125 -0.21875 7.125 -0.378906 L 7.125 -1.960938 C 7.125 -3.714844 6.738281 -4.824219 5.949219 -5.492188 C 6.660156 -5.964844 7.203125 -6.6875 7.203125 -7.730469 L 7.203125 -8.988281 C 7.203125 -10.734375 5.84375 -12.160156 4.03125 -12.160156 L 0.929688 -12.160156 C 0.746094 -12.160156 0.632812 -12.027344 0.632812 -11.816406 L 0.632812 -0.324219 C 0.632812 -0.121094 0.71875 0 0.921875 0 L 2.679688 0 C 2.871094 0 2.96875 -0.121094 2.96875 -0.324219 L 2.96875 -4.726562 C 4.171875 -4.648438 4.789062 -3.9375 4.789062 -2.242188 L 4.789062 -0.402344 C 4.789062 -0.140625 4.988281 -0.0078125 5.191406 -0.0078125 Z M 6.808594 -0.0078125 "/></g></g></g><g fill="#080b1c" fill-opacity="1"><g transform="translate(153.306979, 193.874987)"><g><path d="M 4.929688 -6.703125 C 4.929688 -6.851562 4.8125 -6.949219 4.699219 -6.949219 L 0.667969 -6.949219 C 0.570312 -6.949219 0.4375 -6.851562 0.4375 -6.695312 L 0.4375 -5.480469 C 0.4375 -5.304688 0.597656 -5.226562 0.660156 -5.226562 L 4.691406 -5.226562 C 4.789062 -5.226562 4.929688 -5.332031 4.929688 -5.472656 Z M 4.929688 -6.703125 "/></g></g></g><g fill="#080b1c" fill-opacity="1"><g transform="translate(167.952342, 193.874987)"><g><path d="M 5.9375 0 C 6.097656 0 6.183594 -0.105469 6.183594 -0.316406 L 6.183594 -1.820312 C 6.183594 -2.03125 6.097656 -2.117188 5.9375 -2.117188 L 2.96875 -2.117188 L 2.96875 -11.816406 C 2.96875 -12.027344 2.882812 -12.160156 2.679688 -12.160156 L 0.921875 -12.160156 C 0.730469 -12.160156 0.632812 -12.027344 0.632812 -11.816406 L 0.632812 -0.332031 C 0.632812 -0.121094 0.730469 0 0.929688 0 Z M 5.9375 0 "/></g></g></g><g fill="#080b1c" fill-opacity="1"><g transform="translate(183.599007, 193.874987)"><g><path d="M 2.898438 -9.171875 C 2.898438 -9.726562 3.242188 -10.226562 3.839844 -10.226562 C 4.429688 -10.226562 4.769531 -9.726562 4.769531 -9.171875 L 4.769531 -4.945312 L 2.898438 -4.945312 Z M 7.117188 -9.304688 C 7.117188 -10.992188 5.585938 -12.351562 3.832031 -12.351562 C 2.074219 -12.351562 0.554688 -10.992188 0.554688 -9.304688 L 0.554688 -0.34375 C 0.554688 -0.15625 0.648438 0 0.78125 0 L 2.636719 0 C 2.847656 0 2.898438 -0.148438 2.898438 -0.34375 L 2.898438 -2.898438 L 4.769531 -2.898438 L 4.769531 -0.351562 C 4.769531 -0.167969 4.875 0 5.050781 0 L 6.835938 0 C 7.035156 0 7.117188 -0.175781 7.117188 -0.351562 Z M 7.117188 -9.304688 "/></g></g></g><g fill="#080b1c" fill-opacity="1"><g transform="translate(200.536834, 193.874987)"><g><path d="M 5.859375 -10.023438 C 6.007812 -10.023438 6.113281 -10.128906 6.113281 -10.339844 L 6.113281 -11.84375 C 6.113281 -12.054688 6.007812 -12.160156 5.859375 -12.160156 L 0.246094 -12.160156 C 0.0976562 -12.160156 -0.0078125 -12.042969 -0.0078125 -11.832031 L -0.0078125 -10.339844 C -0.0078125 -10.128906 0.0976562 -10.023438 0.246094 -10.023438 L 1.878906 -10.023438 L 1.878906 -0.308594 C 1.878906 -0.105469 1.984375 0 2.136719 0 L 3.972656 0 C 4.113281 0 4.226562 -0.105469 4.226562 -0.308594 L 4.226562 -10.023438 Z M 5.859375 -10.023438 "/></g></g></g><g fill="#080b1c" fill-opacity="1"><g transform="translate(215.902438, 193.874987)"><g><path d="M 4.8125 -4.882812 C 6.027344 -5.28125 6.933594 -6.289062 6.933594 -7.757812 L 6.933594 -11.964844 C 6.933594 -12.089844 6.863281 -12.160156 6.746094 -12.160156 L 4.777344 -12.160156 C 4.648438 -12.160156 4.585938 -12.070312 4.585938 -11.957031 L 4.585938 -7.828125 C 4.585938 -7.273438 4.253906 -6.828125 3.644531 -6.828125 C 3.039062 -6.828125 2.714844 -7.328125 2.714844 -7.878906 L 2.714844 -11.972656 C 2.714844 -12.070312 2.636719 -12.160156 2.496094 -12.160156 L 0.5625 -12.160156 C 0.429688 -12.160156 0.378906 -12.070312 0.378906 -11.957031 L 0.367188 -7.757812 C 0.367188 -6.324219 1.265625 -5.296875 2.476562 -4.894531 L 2.476562 -0.34375 C 2.476562 -0.121094 2.554688 0 2.742188 0 L 4.558594 0 C 4.742188 0 4.8125 -0.121094 4.8125 -0.34375 Z M 4.8125 -4.882812 "/></g></g></g><g fill="#080b1c" fill-opacity="1"><g transform="translate(232.471365, 193.874987)"><g><path d="M 6.835938 0 C 7.027344 0 7.117188 -0.175781 7.117188 -0.351562 L 7.117188 -9.304688 C 7.117188 -10.992188 5.585938 -12.351562 3.832031 -12.351562 C 2.074219 -12.351562 0.554688 -10.992188 0.554688 -9.304688 L 0.554688 -0.34375 C 0.554688 -0.15625 0.648438 0 0.78125 0 L 2.636719 0 C 2.835938 0 2.898438 -0.148438 2.898438 -0.34375 L 2.898438 -9.171875 C 2.898438 -9.726562 3.242188 -10.226562 3.839844 -10.226562 C 4.429688 -10.226562 4.769531 -9.726562 4.769531 -9.171875 L 4.769531 -0.351562 C 4.769531 -0.167969 4.875 0 5.050781 0 Z M 6.835938 0 "/></g></g></g><g fill="#080b1c" fill-opacity="1"><g transform="translate(249.409192, 193.874987)"><g><path d="M 5.710938 -6.105469 C 6.640625 -6.878906 7.1875 -8.03125 7.1875 -9.523438 L 7.1875 -11.78125 C 7.1875 -11.9375 7.105469 -12.160156 6.871094 -12.160156 L 5.246094 -12.160156 C 5.042969 -12.160156 4.839844 -12.019531 4.839844 -11.753906 L 4.839844 -9.785156 C 4.839844 -8.300781 4.417969 -7.273438 2.96875 -7.152344 L 2.96875 -11.816406 C 2.96875 -12.027344 2.882812 -12.160156 2.679688 -12.160156 L 0.929688 -12.160156 C 0.738281 -12.160156 0.632812 -12.027344 0.632812 -11.816406 L 0.632812 -0.332031 C 0.632812 -0.121094 0.730469 0 0.929688 0 L 2.6875 0 C 2.890625 0 2.96875 -0.121094 2.96875 -0.332031 L 2.96875 -4.945312 C 4.515625 -4.875 4.964844 -3.832031 4.964844 -2.3125 L 4.964844 -0.394531 C 4.964844 -0.132812 5.15625 0 5.359375 0 L 6.992188 0 C 7.222656 0 7.308594 -0.210938 7.308594 -0.367188 L 7.308594 -2.582031 C 7.308594 -4.136719 6.722656 -5.332031 5.710938 -6.105469 Z M 5.710938 -6.105469 "/></g></g></g><g fill="#080b1c" fill-opacity="1"><g transform="translate(266.39093, 193.874987)"><g><path d="M 2.898438 -9.171875 C 2.898438 -9.726562 3.242188 -10.226562 3.839844 -10.226562 C 4.429688 -10.226562 4.769531 -9.726562 4.769531 -9.171875 L 4.769531 -4.945312 L 2.898438 -4.945312 Z M 7.117188 -9.304688 C 7.117188 -10.992188 5.585938 -12.351562 3.832031 -12.351562 C 2.074219 -12.351562 0.554688 -10.992188 0.554688 -9.304688 L 0.554688 -0.34375 C 0.554688 -0.15625 0.648438 0 0.78125 0 L 2.636719 0 C 2.847656 0 2.898438 -0.148438 2.898438 -0.34375 L 2.898438 -2.898438 L 4.769531 -2.898438 L 4.769531 -0.351562 C 4.769531 -0.167969 4.875 0 5.050781 0 L 6.835938 0 C 7.035156 0 7.117188 -0.175781 7.117188 -0.351562 Z M 7.117188 -9.304688 "/></g></g></g><path stroke-linecap="butt" transform="matrix(0.750281, 0, 0, 0.75, 93.783896, 167.342773)" fill="none" stroke-linejoin="miter" d="M 0.00167978 1.001303 L 249.907947 1.001303 " stroke="#080b1c" stroke-width="2" stroke-opacity="1" stroke-miterlimit="4"/><path stroke-linecap="butt" transform="matrix(0.750281, 0, 0, 0.75, 93.783896, 206.157217)" fill="none" stroke-linejoin="miter" d="M 0.00167978 0.998711 L 249.907947 0.998711 " stroke="#080b1c" stroke-width="2" stroke-opacity="1" stroke-miterlimit="4"/></svg>