<?xml version="1.0" encoding="iso-8859-1"?>
<!-- Uploaded to: SVG Repo, www.svgrepo.com, Generator: SVG Repo Mixer Tools -->
<!DOCTYPE svg PUBLIC "-//W3C//DTD SVG 1.1//EN" "http://www.w3.org/Graphics/SVG/1.1/DTD/svg11.dtd">
<svg fill="#000000" height="800px" width="800px" version="1.1" id="Capa_1" xmlns="http://www.w3.org/2000/svg" xmlns:xlink="http://www.w3.org/1999/xlink" 
	 viewBox="0 0 465.326 465.326" xml:space="preserve">
<g>
	<path d="M232.663,91.693c-77.285,0-140.161,60.841-140.161,135.624c0,48.374,19.637,77.182,33.976,98.218
		c8.42,12.336,13.184,19.647,13.184,26.444c0,15.278,6.888,29.956,19.52,41.857c-9.137,3.202-15.651,11.93-15.651,22.02
		c0,12.873,10.474,23.347,23.348,23.347h1.141c1.809,8.452,8.26,26.123,30.47,26.123h68.396c16.952,0,28.007-9.479,30.669-26.123
		h3.258c12.875,0,23.349-10.474,23.349-23.347c0-10.82-7.4-19.945-17.405-22.58c12.244-11.773,18.909-26.232,18.909-41.297
		c0-6.785,4.798-14.16,13.278-26.609l0.068-0.1c14.27-20.927,33.814-49.588,33.814-97.953
		C372.824,152.534,309.948,91.693,232.663,91.693z"/>
	<path d="M232.663,52.976c6.802,0,12.336-5.528,12.336-12.323V12.349C244.999,5.54,239.465,0,232.663,0
		c-6.802,0-12.336,5.54-12.336,12.349v28.304C220.327,47.448,225.862,52.976,232.663,52.976z"/>
	<path d="M129.857,71.576c2.259,3.791,6.36,6.146,10.703,6.146c2.199,0,4.339-0.589,6.129-1.669
		c2.871-1.638,4.922-4.294,5.776-7.478c0.851-3.172,0.415-6.5-1.233-9.385l-14.174-24.523c-2.193-3.818-6.289-6.189-10.687-6.189
		c-2.161,0-4.299,0.576-6.188,1.668c-2.841,1.647-4.871,4.313-5.716,7.506c-0.844,3.189-0.402,6.51,1.24,9.342L129.857,71.576z"/>
	<path d="M42.419,129.34l24.496,14.107c1.866,1.108,4,1.694,6.174,1.694c4.448,0,8.453-2.305,10.722-6.181
		c3.387-5.861,1.361-13.424-4.53-16.866l-24.525-14.15c-1.87-1.083-3.999-1.655-6.158-1.655c-4.423,0-8.53,2.379-10.709,6.192
		C34.513,118.306,36.533,125.862,42.419,129.34z"/>
	<path d="M60.742,224.909c0-6.808-5.534-12.347-12.336-12.347H20.101c-6.802,0-12.336,5.539-12.336,12.347
		c0,6.809,5.534,12.349,12.336,12.349h28.305C55.208,237.257,60.742,231.717,60.742,224.909z"/>
	<path d="M73.132,304.698c-2.157,0-4.294,0.57-6.187,1.656l-24.521,14.172c-2.868,1.643-4.917,4.296-5.771,7.471
		c-0.853,3.169-0.414,6.481,1.222,9.304c2.172,3.833,6.266,6.215,10.684,6.215c2.171,0,4.308-0.564,6.19-1.639l24.559-14.142
		c5.868-3.468,7.887-11.04,4.506-16.874C81.624,307.059,77.531,304.698,73.132,304.698z"/>
	<path d="M422.911,320.532l-24.527-14.176c-1.871-1.085-4-1.658-6.156-1.658c-4.377,0-8.478,2.353-10.711,6.157
		c-3.384,5.84-1.364,13.412,4.53,16.896l24.541,14.131c1.874,1.068,3.993,1.633,6.13,1.633c4.367,0,8.469-2.343,10.729-6.152
		c1.643-2.867,2.079-6.191,1.228-9.36C427.82,324.824,425.77,322.168,422.911,320.532z"/>
	<path d="M445.225,212.562h-28.304c-6.803,0-12.337,5.539-12.337,12.347c0,6.809,5.534,12.349,12.337,12.349h28.304
		c6.802,0,12.336-5.54,12.336-12.349C457.561,218.101,452.027,212.562,445.225,212.562z"/>
	<path d="M392.238,145.142c2.174,0,4.309-0.586,6.139-1.675l24.52-14.121c2.859-1.631,4.908-4.286,5.769-7.475
		c0.863-3.199,0.427-6.534-1.22-9.375c-2.188-3.829-6.287-6.207-10.695-6.207c-2.153,0-4.286,0.57-6.176,1.653l-24.557,14.167
		c-5.853,3.46-7.873,11.019-4.481,16.89C383.803,142.789,387.904,145.142,392.238,145.142z"/>
	<path d="M318.592,75.977c1.864,1.107,3.999,1.692,6.174,1.692c4.363,0,8.464-2.335,10.725-6.132l14.123-24.535
		c1.652-2.851,2.09-6.18,1.232-9.372c-0.858-3.19-2.906-5.851-5.745-7.478c-1.872-1.095-4.003-1.674-6.162-1.674
		c-4.389,0-8.478,2.372-10.667,6.183l-14.176,24.526c-1.649,2.846-2.088,6.16-1.235,9.334
		C313.716,71.701,315.765,74.357,318.592,75.977z"/>
</g>
</svg>