<svg xmlns="http://www.w3.org/2000/svg" xmlns:xlink="http://www.w3.org/1999/xlink" width="2048" zoomAndPan="magnify" viewBox="0 0 1536 1535.999932" height="2048" preserveAspectRatio="xMidYMid meet" version="1.0"><defs><g/></defs><g fill="#ffffff" fill-opacity="1"><g transform="translate(80.358615, 361.07182)"><g><path d="M 111.765625 0 L 75 0 L 71.734375 -19.390625 L 71.5625 -19.921875 L 53.796875 -20.296875 L 38.953125 -19.5625 L 35.875 0 L 0.359375 0 L 35.875 -117.203125 L 79.703125 -117.203125 Z M 66.125 -46.375 L 58.15625 -84.78125 L 55.984375 -84.78125 L 45.828125 -46.375 L 55.984375 -46.1875 Z M 66.125 -46.375 "/></g></g></g><g fill="#ffffff" fill-opacity="1"><g transform="translate(292.720732, 361.07182)"><g><path d="M 87.671875 -60.328125 C 95.285156 -58.148438 100.8125 -54.914062 104.25 -50.625 C 107.695312 -46.34375 109.421875 -40.757812 109.421875 -33.875 C 109.421875 -21.675781 104.4375 -12.769531 94.46875 -7.15625 C 84.507812 -1.539062 69.625 1.265625 49.8125 1.265625 C 38.820312 1.265625 25.84375 0.84375 10.875 0 L 12.6875 -34.421875 L 10.875 -117.203125 L 63.21875 -117.390625 C 76.507812 -117.390625 86.894531 -114.820312 94.375 -109.6875 C 101.863281 -104.550781 105.609375 -97.09375 105.609375 -87.3125 C 105.609375 -81.28125 104.066406 -75.9375 100.984375 -71.28125 C 97.910156 -66.632812 93.472656 -62.984375 87.671875 -60.328125 Z M 68.65625 -82.0625 C 68.65625 -86.289062 67.175781 -89.21875 64.21875 -90.84375 C 61.257812 -92.476562 55.734375 -93.296875 47.640625 -93.296875 L 46.015625 -93.296875 L 45.28125 -69.375 L 58.875 -68.84375 C 62.257812 -69.925781 64.734375 -71.492188 66.296875 -73.546875 C 67.867188 -75.597656 68.65625 -78.4375 68.65625 -82.0625 Z M 56.703125 -22.640625 C 61.648438 -22.640625 65.539062 -23.726562 68.375 -25.90625 C 71.21875 -28.082031 72.640625 -31.222656 72.640625 -35.328125 C 72.640625 -38.097656 71.820312 -40.328125 70.1875 -42.015625 C 68.5625 -43.710938 65.9375 -45.164062 62.3125 -46.375 L 44.75 -46.015625 L 44.5625 -38.046875 L 45.109375 -23.375 C 51.148438 -22.882812 55.015625 -22.640625 56.703125 -22.640625 Z M 56.703125 -22.640625 "/></g></g></g><g fill="#ffffff" fill-opacity="1"><g transform="translate(68.009646, 654.038417)"><g><path d="M 69.203125 -119.203125 C 82.242188 -119.203125 93.535156 -117.390625 103.078125 -113.765625 L 95.28125 -81.703125 L 92.390625 -81.703125 C 86.347656 -84.722656 81.125 -86.894531 76.71875 -88.21875 C 72.3125 -89.550781 67.507812 -90.21875 62.3125 -90.21875 C 56.757812 -90.21875 52.503906 -89.3125 49.546875 -87.5 C 46.585938 -85.6875 44.441406 -82.484375 43.109375 -77.890625 C 41.785156 -73.304688 41.125 -66.664062 41.125 -57.96875 C 41.125 -49.15625 41.785156 -42.421875 43.109375 -37.765625 C 44.441406 -33.117188 46.707031 -29.859375 49.90625 -27.984375 C 53.101562 -26.117188 57.722656 -25.1875 63.765625 -25.1875 C 65.453125 -25.1875 67.625 -25.425781 70.28125 -25.90625 L 70.28125 -31.703125 L 69.75 -51.453125 L 102.890625 -53.796875 L 102.359375 -37.859375 L 102.359375 -5.796875 C 88.347656 -0.484375 74.394531 2.171875 60.5 2.171875 C 41.539062 2.171875 27.226562 -2.867188 17.5625 -12.953125 C 7.90625 -23.035156 3.078125 -37.4375 3.078125 -56.15625 C 3.078125 -76.6875 8.78125 -92.328125 20.1875 -103.078125 C 31.601562 -113.828125 47.941406 -119.203125 69.203125 -119.203125 Z M 69.203125 -119.203125 "/></g></g></g><g fill="#ffffff" fill-opacity="1"><g transform="translate(292.720732, 654.038417)"><g><path d="M 69.203125 -119.203125 C 82.242188 -119.203125 93.535156 -117.390625 103.078125 -113.765625 L 95.28125 -81.703125 L 92.390625 -81.703125 C 86.347656 -84.722656 81.125 -86.894531 76.71875 -88.21875 C 72.3125 -89.550781 67.507812 -90.21875 62.3125 -90.21875 C 56.757812 -90.21875 52.503906 -89.3125 49.546875 -87.5 C 46.585938 -85.6875 44.441406 -82.484375 43.109375 -77.890625 C 41.785156 -73.304688 41.125 -66.664062 41.125 -57.96875 C 41.125 -49.15625 41.785156 -42.421875 43.109375 -37.765625 C 44.441406 -33.117188 46.707031 -29.859375 49.90625 -27.984375 C 53.101562 -26.117188 57.722656 -25.1875 63.765625 -25.1875 C 65.453125 -25.1875 67.625 -25.425781 70.28125 -25.90625 L 70.28125 -31.703125 L 69.75 -51.453125 L 102.890625 -53.796875 L 102.359375 -37.859375 L 102.359375 -5.796875 C 88.347656 -0.484375 74.394531 2.171875 60.5 2.171875 C 41.539062 2.171875 27.226562 -2.867188 17.5625 -12.953125 C 7.90625 -23.035156 3.078125 -37.4375 3.078125 -56.15625 C 3.078125 -76.6875 8.78125 -92.328125 20.1875 -103.078125 C 31.601562 -113.828125 47.941406 -119.203125 69.203125 -119.203125 Z M 28.984375 -144.375 C 39.859375 -151.863281 49.097656 -159.050781 56.703125 -165.9375 L 62.859375 -165.9375 C 70.472656 -159.050781 79.710938 -151.863281 90.578125 -144.375 L 84.421875 -130.609375 L 81.15625 -130.609375 L 59.78125 -141.484375 L 38.40625 -130.609375 L 35.15625 -130.609375 Z M 28.984375 -144.375 "/></g></g></g><g fill="#ffffff" fill-opacity="1"><g transform="translate(893.650853, 361.07182)"><g><path d="M 63.765625 -117.9375 C 81.035156 -117.9375 94.289062 -113.253906 103.53125 -103.890625 C 112.769531 -94.535156 117.390625 -81.039062 117.390625 -63.40625 C 117.390625 -42.507812 112.015625 -26.445312 101.265625 -15.21875 C 90.515625 -3.988281 75.117188 1.625 55.078125 1.625 C 42.515625 1.625 27.78125 1.082031 10.875 0 L 12.6875 -34.421875 L 10.875 -117.203125 Z M 61.953125 -25.359375 C 67.628906 -25.359375 71.945312 -27.625 74.90625 -32.15625 C 77.863281 -36.6875 79.34375 -44.144531 79.34375 -54.53125 C 79.34375 -63.34375 78.738281 -70.285156 77.53125 -75.359375 C 76.320312 -80.429688 74.390625 -84.082031 71.734375 -86.3125 C 69.078125 -88.550781 65.394531 -89.671875 60.6875 -89.671875 C 56.09375 -89.671875 51.5625 -89.429688 47.09375 -88.953125 L 45.828125 -38.046875 L 46.1875 -26.8125 C 53.4375 -25.84375 58.691406 -25.359375 61.953125 -25.359375 Z M 61.953125 -25.359375 "/></g></g></g><g fill="#ffffff" fill-opacity="1"><g transform="translate(1094.04006, 361.07182)"><g><path d="M 93.65625 -28.984375 L 95.65625 -26.453125 L 93.484375 0 L 10.875 0 L 12.6875 -34.421875 L 10.875 -117.203125 L 94.921875 -117.203125 L 96.921875 -114.671875 L 94.5625 -88.21875 L 65.765625 -89.3125 L 47.09375 -89.3125 L 46.734375 -72.828125 L 64.671875 -72.828125 L 83.515625 -73.375 L 85.5 -70.828125 L 83.328125 -44.390625 L 62.3125 -44.921875 L 46.015625 -44.921875 L 45.828125 -38.046875 L 46.1875 -27.890625 L 63.578125 -27.890625 Z M 93.65625 -28.984375 "/></g></g></g><g fill="#ffffff" fill-opacity="1"><g transform="translate(1111.235555, 1280.649659)"><g><path d="M 97.46875 -91.296875 L 47.640625 -26.8125 L 76.8125 -26.8125 L 99.09375 -28.4375 L 100.171875 -26.8125 L 97.28125 0.90625 L 65.03125 0 L 23.375 0 L 5.078125 1.09375 L 5.078125 -24.8125 L 55.796875 -90.390625 L 27.359375 -90.390625 L 5.609375 -88.578125 L 4.34375 -90.03125 L 6.890625 -117.75 L 34.0625 -117.203125 L 83.6875 -117.203125 L 97.46875 -117.390625 Z M 82.421875 -150.546875 C 71.554688 -143.054688 62.316406 -135.867188 54.703125 -128.984375 L 48.546875 -128.984375 C 40.941406 -135.867188 31.703125 -143.054688 20.828125 -150.546875 L 26.984375 -164.3125 L 30.25 -164.3125 L 51.625 -153.4375 L 73 -164.3125 L 76.265625 -164.3125 Z M 82.421875 -150.546875 "/></g></g></g><g fill="#ffffff" fill-opacity="1"><g transform="translate(906.34942, 1280.649659)"><g><path d="M 97.46875 -91.296875 L 47.640625 -26.8125 L 76.8125 -26.8125 L 99.09375 -28.4375 L 100.171875 -26.8125 L 97.28125 0.90625 L 65.03125 0 L 23.375 0 L 5.078125 1.09375 L 5.078125 -24.8125 L 55.796875 -90.390625 L 27.359375 -90.390625 L 5.609375 -88.578125 L 4.34375 -90.03125 L 6.890625 -117.75 L 34.0625 -117.203125 L 83.6875 -117.203125 L 97.46875 -117.390625 Z M 97.46875 -91.296875 "/></g></g></g><g fill="#ffffff" fill-opacity="1"><g transform="translate(738.211435, 656.492729)"><g><path d="M 45.828125 -38.046875 L 47.28125 0 L 10.875 0 L 12.6875 -34.421875 L 10.875 -117.203125 L 47.828125 -117.203125 Z M 45.828125 -38.046875 "/></g></g></g><g fill="#ffffff" fill-opacity="1"><g transform="translate(923.952387, 654.038417)"><g><path d="M 53.078125 -38.59375 L 53.4375 -22.46875 C 53.4375 -14.851562 52.164062 -8.445312 49.625 -3.25 C 47.09375 1.9375 42.898438 6.398438 37.046875 10.140625 C 31.191406 13.890625 23.070312 17.273438 12.6875 20.296875 L 3.265625 1.625 L 3.265625 -1.265625 C 9.421875 -4.285156 13.734375 -7.425781 16.203125 -10.6875 C 18.679688 -13.945312 19.921875 -18.234375 19.921875 -23.546875 L 19.921875 -34.96875 L 18.65625 -91.671875 L 3.265625 -91.125 L 1.265625 -93.484375 L 2.71875 -117.203125 L 55.078125 -117.203125 Z M 53.078125 -38.59375 "/></g></g></g><g fill="#ffffff" fill-opacity="1"><g transform="translate(1094.04006, 654.038417)"><g><path d="M 79.171875 -61.78125 C 90.273438 -44.382812 102.953125 -26.328125 117.203125 -7.609375 L 116.671875 -3.625 C 103.984375 -0.84375 91.90625 1.085938 80.4375 2.171875 L 76.453125 0 C 64.128906 -21.132812 54.039062 -39.066406 46.1875 -53.796875 L 45.828125 -38.046875 L 47.28125 0 L 10.875 0 L 12.6875 -34.421875 L 10.875 -117.203125 L 47.828125 -117.203125 L 46.5625 -68.296875 L 69.015625 -104.53125 L 75.1875 -117.203125 L 113.578125 -117.203125 Z M 79.171875 -61.78125 "/></g></g></g><g fill="#ffffff" fill-opacity="1"><g transform="translate(1300.930002, 654.038417)"><g><path d="M 81.875 -27.171875 L 79.703125 0 L 9.96875 0 L 11.78125 -34.421875 L 9.96875 -117.203125 L 46.921875 -117.203125 L 44.921875 -38.046875 L 45.28125 -29.703125 L 79.890625 -29.703125 Z M 81.875 -27.171875 "/></g></g></g><g fill="#ffffff" fill-opacity="1"><g transform="translate(59.807563, 970.828382)"><g><path d="M 140.21875 0 L 108.328125 0 L 107.421875 -35.5 L 105.4375 -65.03125 L 103.265625 -65.03125 L 84.421875 -11.046875 L 57.0625 -11.046875 L 41.484375 -65.03125 L 39.3125 -65.03125 L 36.78125 -38.953125 L 34.96875 0 L 4.703125 0 L 16.125 -117.203125 L 57.96875 -117.203125 L 61.40625 -100.546875 L 71.734375 -57.96875 L 73.90625 -57.96875 L 85.328125 -99.28125 L 89.484375 -117.203125 L 130.796875 -117.203125 Z M 140.21875 0 "/></g></g></g><g fill="#ffffff" fill-opacity="1"><g transform="translate(281.97505, 968.457326)"><g><path d="M 115.765625 -38.21875 L 117.203125 0 L 77.71875 0 L 44.75 -62.6875 L 42.578125 -62.6875 L 42.390625 -42.390625 L 43.84375 0 L 10.875 0 L 12.6875 -34.421875 L 10.875 -117.203125 L 50.359375 -117.203125 L 83.328125 -54.53125 L 85.5 -54.53125 L 84.421875 -115.9375 L 117.75 -117.9375 Z M 115.765625 -38.21875 "/></g></g></g><g fill="#ffffff" fill-opacity="1"><g transform="translate(511.909094, 968.457326)"><g><path d="M 61.78125 -119.375 C 78.800781 -119.375 91.960938 -114.332031 101.265625 -104.25 C 110.566406 -94.164062 115.21875 -79.945312 115.21875 -61.59375 C 115.21875 -41.300781 110.113281 -25.597656 99.90625 -14.484375 C 89.695312 -3.378906 75.234375 2.171875 56.515625 2.171875 C 39.492188 2.171875 26.332031 -2.925781 17.03125 -13.125 C 7.726562 -23.332031 3.078125 -37.796875 3.078125 -56.515625 C 3.078125 -76.566406 8.175781 -92.054688 18.375 -102.984375 C 28.582031 -113.910156 43.050781 -119.375 61.78125 -119.375 Z M 58.515625 -90.390625 C 53.804688 -90.390625 50.242188 -89.570312 47.828125 -87.9375 C 45.410156 -86.3125 43.6875 -83.445312 42.65625 -79.34375 C 41.632812 -75.238281 41.125 -69.257812 41.125 -61.40625 C 41.125 -51.382812 41.664062 -43.773438 42.75 -38.578125 C 43.84375 -33.390625 45.6875 -29.769531 48.28125 -27.71875 C 50.875 -25.664062 54.707031 -24.640625 59.78125 -24.640625 C 64.488281 -24.640625 68.050781 -25.453125 70.46875 -27.078125 C 72.882812 -28.710938 74.601562 -31.613281 75.625 -35.78125 C 76.65625 -39.945312 77.171875 -45.953125 77.171875 -53.796875 C 77.171875 -63.703125 76.625 -71.25 75.53125 -76.4375 C 74.445312 -81.632812 72.609375 -85.257812 70.015625 -87.3125 C 67.421875 -89.363281 63.585938 -90.390625 58.515625 -90.390625 Z M 58.515625 -90.390625 "/></g></g></g><g fill="#ffffff" fill-opacity="1"><g transform="translate(708.088869, 968.457326)"><g><path d="M 66.484375 -117.390625 C 79.648438 -117.390625 89.765625 -114.15625 96.828125 -107.6875 C 103.890625 -101.226562 107.421875 -92.023438 107.421875 -80.078125 C 107.421875 -70.773438 105.242188 -62.585938 100.890625 -55.515625 C 96.546875 -48.453125 90.390625 -42.957031 82.421875 -39.03125 C 74.453125 -35.113281 65.273438 -33.15625 54.890625 -33.15625 L 46.015625 -33.15625 L 47.28125 0 L 10.875 0 L 12.6875 -34.421875 L 10.875 -117.203125 Z M 59.96875 -58.515625 C 63.226562 -60.328125 65.609375 -62.648438 67.109375 -65.484375 C 68.617188 -68.328125 69.375 -71.984375 69.375 -76.453125 C 69.375 -81.765625 68.109375 -85.65625 65.578125 -88.125 C 63.046875 -90.601562 59.0625 -91.960938 53.625 -92.203125 L 47.09375 -91.671875 L 46.375 -59.234375 Z M 59.96875 -58.515625 "/></g></g></g><g fill="#ffffff" fill-opacity="1"><g transform="translate(906.34942, 971.894966)"><g><path d="M 88.046875 -46.1875 C 96.734375 -32.664062 105.425781 -20.109375 114.125 -8.515625 L 113.578125 -4.53125 C 101.265625 -0.78125 89.128906 1.453125 77.171875 2.171875 L 73.734375 -0.71875 L 71.5625 -5.25 C 70.59375 -7.1875 68.65625 -11.265625 65.75 -17.484375 C 62.851562 -23.703125 60.320312 -29.53125 58.15625 -34.96875 L 46.015625 -34.96875 L 47.28125 0 L 10.875 0 L 12.6875 -34.421875 L 10.875 -117.203125 L 66.484375 -117.390625 C 79.648438 -117.390625 89.796875 -114.28125 96.921875 -108.0625 C 104.046875 -101.84375 107.609375 -92.875 107.609375 -81.15625 C 107.609375 -74.269531 105.882812 -67.804688 102.4375 -61.765625 C 99 -55.734375 94.203125 -50.539062 88.046875 -46.1875 Z M 69.375 -77.53125 C 69.375 -82.363281 68.132812 -85.957031 65.65625 -88.3125 C 63.1875 -90.664062 59.175781 -91.960938 53.625 -92.203125 L 47.09375 -91.671875 L 46.375 -61.40625 L 59.59375 -60.6875 C 62.976562 -62.257812 65.453125 -64.375 67.015625 -67.03125 C 68.585938 -69.6875 69.375 -73.1875 69.375 -77.53125 Z M 69.375 -77.53125 "/></g></g></g><g fill="#ffffff" fill-opacity="1"><g transform="translate(1111.235555, 971.894966)"><g><path d="M 55.25 -119.375 C 66.726562 -119.375 78.082031 -117.265625 89.3125 -113.046875 L 83.515625 -83.515625 L 78.4375 -81.34375 C 73.363281 -84.476562 68.351562 -86.953125 63.40625 -88.765625 C 58.457031 -90.578125 54.472656 -91.484375 51.453125 -91.484375 C 48.671875 -91.484375 46.460938 -90.9375 44.828125 -89.84375 C 43.203125 -88.757812 42.390625 -87.3125 42.390625 -85.5 C 42.390625 -83.207031 43.625 -81.242188 46.09375 -79.609375 C 48.570312 -77.984375 52.710938 -75.84375 58.515625 -73.1875 C 65.273438 -70.164062 70.828125 -67.359375 75.171875 -64.765625 C 79.523438 -62.171875 83.332031 -58.609375 86.59375 -54.078125 C 89.851562 -49.546875 91.484375 -43.957031 91.484375 -37.3125 C 91.484375 -29.945312 89.457031 -23.273438 85.40625 -17.296875 C 81.363281 -11.316406 75.597656 -6.578125 68.109375 -3.078125 C 60.628906 0.421875 51.9375 2.171875 42.03125 2.171875 C 29.707031 2.171875 16.785156 -0.117188 3.265625 -4.703125 L 8.515625 -36.234375 L 12.140625 -38.40625 C 17.691406 -34.175781 23.632812 -30.820312 29.96875 -28.34375 C 36.3125 -25.875 41.597656 -24.640625 45.828125 -24.640625 C 49.210938 -24.640625 51.660156 -25.210938 53.171875 -26.359375 C 54.679688 -27.503906 55.4375 -28.921875 55.4375 -30.609375 C 55.4375 -33.148438 54.132812 -35.296875 51.53125 -37.046875 C 48.9375 -38.796875 44.742188 -40.941406 38.953125 -43.484375 C 32.304688 -46.378906 26.835938 -49.125 22.546875 -51.71875 C 18.265625 -54.3125 14.550781 -57.875 11.40625 -62.40625 C 8.269531 -66.9375 6.703125 -72.523438 6.703125 -79.171875 C 6.703125 -86.773438 8.753906 -93.625 12.859375 -99.71875 C 16.960938 -105.820312 22.695312 -110.625 30.0625 -114.125 C 37.4375 -117.625 45.832031 -119.375 55.25 -119.375 Z M 55.25 -119.375 "/></g></g></g><g fill="#ffffff" fill-opacity="1"><g transform="translate(81.254206, 1280.649659)"><g><path d="M 92.9375 -114.671875 L 90.9375 -88.21875 L 67.03125 -89.3125 L 64.859375 -89.3125 L 63.953125 -38.046875 L 65.390625 0 L 29.171875 0 L 30.984375 -34.421875 L 30.078125 -89.3125 L 27.71875 -89.3125 L 3.625 -88.21875 L 1.453125 -90.765625 L 3.4375 -117.203125 L 90.9375 -117.203125 Z M 92.9375 -114.671875 "/></g></g></g><g fill="#ffffff" fill-opacity="1"><g transform="translate(282.314131, 1280.649659)"><g><path d="M 108.6875 -57.78125 L 108.515625 -39.125 C 108.390625 -25.84375 103.914062 -15.640625 95.09375 -8.515625 C 86.28125 -1.390625 73.664062 2.171875 57.25 2.171875 C 41.425781 2.171875 29.316406 -1.390625 20.921875 -8.515625 C 12.523438 -15.640625 8.507812 -25.84375 8.875 -39.125 L 9.421875 -57.78125 L 8.328125 -117.203125 L 44.75 -117.203125 L 43.109375 -44.015625 C 42.992188 -37.859375 44.171875 -33.390625 46.640625 -30.609375 C 49.117188 -27.835938 53.132812 -26.453125 58.6875 -26.453125 C 64.363281 -26.453125 68.46875 -27.835938 71 -30.609375 C 73.539062 -33.390625 74.753906 -37.859375 74.640625 -44.015625 L 73 -117.203125 L 109.96875 -117.203125 Z M 108.6875 -57.78125 "/></g></g></g><g fill="#ffffff" fill-opacity="1"><g transform="translate(1292.488291, 361.07182)"><g><path d="M 47.09375 -89.3125 L 46.5625 -68.296875 L 58.875 -68.296875 L 79.890625 -68.84375 L 81.875 -66.296875 L 79.703125 -39.859375 L 56.34375 -40.390625 L 45.828125 -40.390625 L 45.828125 -38.046875 L 47.28125 0 L 10.875 0 L 12.6875 -34.421875 L 10.875 -117.203125 L 89.125 -117.203125 L 91.125 -114.671875 L 88.765625 -88.21875 L 59.78125 -89.3125 Z M 47.09375 -89.3125 "/></g></g></g><g fill="#ffffff" fill-opacity="1"><g transform="translate(502.417671, 656.492729)"><g><path d="M 117.390625 -38.046875 L 118.84375 0 L 82.421875 0 L 84.234375 -34.421875 L 84.0625 -43.484375 L 64.484375 -43.84375 L 47.640625 -43.296875 L 47.46875 -38.046875 L 48.90625 0 L 12.5 0 L 14.3125 -34.421875 L 12.5 -117.203125 L 49.453125 -117.203125 L 48.375 -72.828125 L 66.671875 -72.46875 L 83.328125 -72.828125 L 82.421875 -117.203125 L 119.375 -117.203125 Z M 117.390625 -38.046875 "/></g></g></g><g fill="#ffffff" fill-opacity="1"><g transform="translate(1300.930002, 971.894966)"><g><path d="M 55.25 -119.375 C 66.726562 -119.375 78.082031 -117.265625 89.3125 -113.046875 L 83.515625 -83.515625 L 78.4375 -81.34375 C 73.363281 -84.476562 68.351562 -86.953125 63.40625 -88.765625 C 58.457031 -90.578125 54.472656 -91.484375 51.453125 -91.484375 C 48.671875 -91.484375 46.460938 -90.9375 44.828125 -89.84375 C 43.203125 -88.757812 42.390625 -87.3125 42.390625 -85.5 C 42.390625 -83.207031 43.625 -81.242188 46.09375 -79.609375 C 48.570312 -77.984375 52.710938 -75.84375 58.515625 -73.1875 C 65.273438 -70.164062 70.828125 -67.359375 75.171875 -64.765625 C 79.523438 -62.171875 83.332031 -58.609375 86.59375 -54.078125 C 89.851562 -49.546875 91.484375 -43.957031 91.484375 -37.3125 C 91.484375 -29.945312 89.457031 -23.273438 85.40625 -17.296875 C 81.363281 -11.316406 75.597656 -6.578125 68.109375 -3.078125 C 60.628906 0.421875 51.9375 2.171875 42.03125 2.171875 C 29.707031 2.171875 16.785156 -0.117188 3.265625 -4.703125 L 8.515625 -36.234375 L 12.140625 -38.40625 C 17.691406 -34.175781 23.632812 -30.820312 29.96875 -28.34375 C 36.3125 -25.875 41.597656 -24.640625 45.828125 -24.640625 C 49.210938 -24.640625 51.660156 -25.210938 53.171875 -26.359375 C 54.679688 -27.503906 55.4375 -28.921875 55.4375 -30.609375 C 55.4375 -33.148438 54.132812 -35.296875 51.53125 -37.046875 C 48.9375 -38.796875 44.742188 -40.941406 38.953125 -43.484375 C 32.304688 -46.378906 26.835938 -49.125 22.546875 -51.71875 C 18.265625 -54.3125 14.550781 -57.875 11.40625 -62.40625 C 8.269531 -66.9375 6.703125 -72.523438 6.703125 -79.171875 C 6.703125 -86.773438 8.753906 -93.625 12.859375 -99.71875 C 16.960938 -105.820312 22.695312 -110.625 30.0625 -114.125 C 37.4375 -117.625 45.832031 -119.375 55.25 -119.375 Z M 80.609375 -150.546875 C 69.742188 -143.054688 60.503906 -135.867188 52.890625 -128.984375 L 46.734375 -128.984375 C 39.128906 -135.867188 29.890625 -143.054688 19.015625 -150.546875 L 25.171875 -164.3125 L 28.4375 -164.3125 L 49.8125 -153.4375 L 71.1875 -164.3125 L 74.453125 -164.3125 Z M 80.609375 -150.546875 "/></g></g></g><g fill="#ffffff" fill-opacity="1"><g transform="translate(702.991486, 1280.649659)"><g><path d="M 69.203125 -30.796875 L 70.65625 0 L 34.421875 0 L 36.234375 -30.796875 L 36.046875 -36.40625 L -1.453125 -117.203125 L 36.59375 -117.203125 L 39.484375 -107.421875 L 52.71875 -72.09375 L 54.890625 -72.09375 L 70.109375 -106.15625 L 74.28125 -117.203125 L 111.234375 -117.203125 L 69.5625 -37.6875 Z M 69.203125 -30.796875 "/></g></g></g><g fill="#ffffff" fill-opacity="1"><g transform="translate(502.417671, 361.07182)"><g><path d="M 63.765625 -119.203125 C 74.148438 -119.203125 83.929688 -117.570312 93.109375 -114.3125 L 86.953125 -85.5 L 84.59375 -84.0625 C 81.457031 -85.75 77.835938 -87.101562 73.734375 -88.125 C 69.628906 -89.15625 65.820312 -89.671875 62.3125 -89.671875 C 54.945312 -89.671875 49.632812 -87.523438 46.375 -83.234375 C 43.113281 -78.953125 41.484375 -71.800781 41.484375 -61.78125 C 41.484375 -50.0625 43.351562 -41.515625 47.09375 -36.140625 C 50.84375 -30.765625 56.703125 -28.078125 64.671875 -28.078125 C 68.054688 -28.078125 71.832031 -28.410156 76 -29.078125 C 80.164062 -29.742188 83.816406 -30.679688 86.953125 -31.890625 L 89.859375 -30.078125 L 86.953125 -1.453125 C 79.703125 0.847656 71.3125 2 61.78125 2 C 42.332031 2 27.6875 -3.070312 17.84375 -13.21875 C 8 -23.363281 3.078125 -38.160156 3.078125 -57.609375 C 3.078125 -77.171875 8.359375 -92.328125 18.921875 -103.078125 C 29.492188 -113.828125 44.441406 -119.203125 63.765625 -119.203125 Z M 63.765625 -119.203125 "/></g></g></g><g fill="#ffffff" fill-opacity="1"><g transform="translate(702.991486, 361.07182)"><g><path d="M 63.765625 -119.203125 C 74.148438 -119.203125 83.929688 -117.570312 93.109375 -114.3125 L 86.953125 -85.5 L 84.59375 -84.0625 C 81.457031 -85.75 77.835938 -87.101562 73.734375 -88.125 C 69.628906 -89.15625 65.820312 -89.671875 62.3125 -89.671875 C 54.945312 -89.671875 49.632812 -87.523438 46.375 -83.234375 C 43.113281 -78.953125 41.484375 -71.800781 41.484375 -61.78125 C 41.484375 -50.0625 43.351562 -41.515625 47.09375 -36.140625 C 50.84375 -30.765625 56.703125 -28.078125 64.671875 -28.078125 C 68.054688 -28.078125 71.832031 -28.410156 76 -29.078125 C 80.164062 -29.742188 83.816406 -30.679688 86.953125 -31.890625 L 89.859375 -30.078125 L 86.953125 -1.453125 C 79.703125 0.847656 71.3125 2 61.78125 2 C 42.332031 2 27.6875 -3.070312 17.84375 -13.21875 C 8 -23.363281 3.078125 -38.160156 3.078125 -57.609375 C 3.078125 -77.171875 8.359375 -92.328125 18.921875 -103.078125 C 29.492188 -113.828125 44.441406 -119.203125 63.765625 -119.203125 Z M 88.21875 -150.546875 C 77.351562 -143.054688 68.113281 -135.867188 60.5 -128.984375 L 54.34375 -128.984375 C 46.738281 -135.867188 37.5 -143.054688 26.625 -150.546875 L 32.78125 -164.3125 L 36.046875 -164.3125 L 57.421875 -153.4375 L 78.796875 -164.3125 L 82.0625 -164.3125 Z M 88.21875 -150.546875 "/></g></g></g><g fill="#ffffff" fill-opacity="1"><g transform="translate(508.942502, 1280.649659)"><g><path d="M 76.625 0 L 32.796875 0 L 0.71875 -117.203125 L 37.5 -117.203125 L 40.765625 -97.828125 L 54.34375 -32.421875 L 56.515625 -32.421875 L 73.1875 -95.65625 L 76.625 -117.203125 L 112.140625 -117.203125 Z M 76.625 0 "/></g></g></g><g fill="#ffffff" fill-opacity="1"><g transform="translate(1331.691472, 1243.88771)"><g><path d="M 38.765625 -90.765625 L 30.078125 -43.296875 L 14.125 -40.765625 L 11.40625 -42.75 L 9.59375 -91.296875 L 36.953125 -92.9375 Z M 38.765625 -90.765625 "/></g></g></g><g fill="#e08a27" fill-opacity="1"><g transform="translate(404.546903, 691.687721)"><g><path d="M 27.09375 -63.75 L 38.625 -63.75 L 38.625 -52.59375 L 37.265625 -42.796875 L 17.375 -42.796875 L 17.375 0 L 4.9375 0 L 4.9375 -52.59375 L 27.09375 -52.59375 Z M 27.09375 -63.75 "/></g></g></g><g fill="#e08a27" fill-opacity="1"><g transform="translate(1219.784809, 1315.844627)"><g><path d="M 67.84375 -52.59375 L 54.71875 -28.765625 L 69.28125 0 L 55.78125 0 L 44.703125 -23 L 40.0625 -23 L 40.0625 0 L 28.609375 0 L 28.609375 -23 L 23.828125 -23 L 12.671875 0 L -0.53125 0 L 13.96875 -28.765625 L 0.828125 -52.59375 L 13.125 -52.59375 L 24.140625 -31.796875 L 28.609375 -31.796875 L 28.609375 -52.59375 L 40.0625 -52.59375 L 40.0625 -31.796875 L 44.546875 -31.796875 L 55.703125 -52.59375 Z M 67.84375 -52.59375 "/></g></g></g><g fill="#e08a27" fill-opacity="1"><g transform="translate(987.167181, 691.687721)"><g><path d="M 45.453125 0 L 33.234375 0 L 33.234375 -19.65625 C 33.234375 -26.894531 33.816406 -33.800781 34.984375 -40.375 L 19.890625 0 L 4.9375 0 L 4.9375 -52.59375 L 17.15625 -52.59375 L 17.15625 -32.5625 C 17.15625 -28.363281 17 -24.867188 16.6875 -22.078125 C 16.382812 -19.296875 15.929688 -16.0625 15.328125 -12.375 L 30.734375 -52.59375 L 45.453125 -52.59375 Z M 25.125 -56.921875 C 21.226562 -56.921875 18.15625 -57.984375 15.90625 -60.109375 C 13.65625 -62.234375 12.378906 -65.066406 12.078125 -68.609375 L 18.671875 -69.8125 C 19.128906 -68.195312 19.875 -67.035156 20.90625 -66.328125 C 21.945312 -65.617188 23.351562 -65.265625 25.125 -65.265625 C 26.894531 -65.265625 28.296875 -65.617188 29.328125 -66.328125 C 30.367188 -67.035156 31.144531 -68.195312 31.65625 -69.8125 L 38.25 -68.609375 C 37.945312 -65.066406 36.65625 -62.234375 34.375 -60.109375 C 32.101562 -57.984375 29.019531 -56.921875 25.125 -56.921875 Z M 25.125 -56.921875 "/></g></g></g><g fill="#e08a27" fill-opacity="1"><g transform="translate(597.655711, 397.928706)"><g><path d="M 44.921875 -9.484375 L 51 -9.484375 L 51 12.59375 L 42.34375 12.59375 L 40.984375 0 L 4.9375 0 L 4.9375 -52.59375 L 17.375 -52.59375 L 17.375 -9.71875 L 32.484375 -9.71875 L 32.484375 -52.59375 L 44.921875 -52.59375 Z M 44.921875 -9.484375 "/></g></g></g><g fill="#e08a27" fill-opacity="1"><g transform="translate(800.577733, 397.928706)"><g><path d="M 42.046875 -52.59375 L 42.046875 0 L 29.59375 0 L 29.59375 -19.421875 C 27.820312 -18.054688 26.015625 -17.046875 24.171875 -16.390625 C 22.328125 -15.734375 20.238281 -15.40625 17.90625 -15.40625 C 12.800781 -15.40625 8.804688 -17.023438 5.921875 -20.265625 C 3.035156 -23.503906 1.59375 -27.90625 1.59375 -33.46875 L 1.59375 -52.59375 L 13.890625 -52.59375 L 13.890625 -33.625 C 13.890625 -30.53125 14.492188 -28.265625 15.703125 -26.828125 C 16.921875 -25.390625 18.847656 -24.671875 21.484375 -24.671875 C 24.816406 -24.671875 27.519531 -25.65625 29.59375 -27.625 L 29.59375 -52.59375 Z M 42.046875 -52.59375 "/></g></g></g><g fill="#e08a27" fill-opacity="1"><g transform="translate(1402.46065, 1007.089934)"><g><path d="M 64.125 -52.59375 L 64.125 0 L 4.9375 0 L 4.9375 -52.59375 L 17.078125 -52.59375 L 17.078125 -9.71875 L 28.6875 -9.71875 L 28.6875 -52.59375 L 40.296875 -52.59375 L 40.296875 -9.71875 L 51.90625 -9.71875 L 51.90625 -52.59375 Z M 64.125 -52.59375 "/></g></g></g><g fill="#e08a27" fill-opacity="1"><g transform="translate(787.49915, 1315.844627)"><g><path d="M 45.453125 0 L 33.234375 0 L 33.234375 -19.65625 C 33.234375 -26.894531 33.816406 -33.800781 34.984375 -40.375 L 19.890625 0 L 4.9375 0 L 4.9375 -52.59375 L 17.15625 -52.59375 L 17.15625 -32.5625 C 17.15625 -28.363281 17 -24.867188 16.6875 -22.078125 C 16.382812 -19.296875 15.929688 -16.0625 15.328125 -12.375 L 30.734375 -52.59375 L 45.453125 -52.59375 Z M 45.453125 0 "/></g></g></g></svg>