<svg inkscape:version="1.2 (dc2aedaf03, 2022-05-15)" sodipodi:docname="logoimage.svg.2023_02_28_22_34_27.0222.svg" id="svg121" version="1.0" preserveaspectratio="xMidYMid" height="68" viewbox="0 -7 243.66375 150" zoomandpan="magnify" width="111" xmlns:inkscape="http://www.inkscape.org/namespaces/inkscape" xmlns:sodipodi="http://sodipodi.sourceforge.net/DTD/sodipodi-0.dtd" xmlns="http://www.w3.org/2000/svg" xmlns:svg="http://www.w3.org/2000/svg">
  <namedview id="namedview123" pagecolor="#ffffff" bordercolor="#000000" borderopacity="0.25" inkscape:showpageshadow="2" inkscape:pageopacity="0.0" inkscape:pagecheckerboard="0" inkscape:deskcolor="#d1d1d1" showgrid="false" inkscape:zoom="1.8561553" inkscape:cx="135.7645" inkscape:cy="134.68701" inkscape:window-width="1366" inkscape:window-height="705" inkscape:window-x="-8" inkscape:window-y="-8" inkscape:window-maximized="1" inkscape:current-layer="svg121"></namedview>
  <defs id="defs7">
    <g id="g2"></g>
    <clippath id="f1e8dd0ef9">
      <path d="M 65.652344,167.34375 H 309.34766 v 40.3125 H 65.652344 Z m 0,0" clip-rule="nonzero" id="path4"></path>
    </clippath>
  </defs>
  <rect style="fill:none;stroke-width:0.779524" id="rect1732" width="242.97906" height="162.48776" x="65.811264" y="104.60592" transform="matrix(1.0015943,0,0,0.92316959,-65.75701,-103.49932)"></rect>
  <g fill="currentcolor" id="g1604">
    <path d="m 53.027344,-33.203125 c 0,6.152344 -3.808594,11.816406 -10.351563,11.816406 -6.640625,0 -10.449219,-5.664062 -10.449219,-11.816406 v -98.140625 c 0,-2.05078 -0.585937,-3.80859 -2.929687,-3.80859 H 8.691406 c -1.367187,0 -2.539062,1.75781 -2.539062,3.80859 v 99.605469 c 0,18.75 16.894531,33.886719 36.425781,33.886719 19.53125,0 36.519531,-15.136719 36.519531,-33.886719 v -99.507809 c 0,-1.95313 -0.976562,-3.90625 -3.121094,-3.90625 H 56.152344 c -2.050782,0 -3.125,1.85547 -3.125,3.90625 z m 0,0" id="path9" transform="translate(38.772296,135.15234)"></path>
    <path d="M 66.015625,0 C 67.773438,0 68.75,-1.171875 68.75,-3.515625 v -16.699219 c 0,-2.34375 -0.976562,-3.320312 -2.734375,-3.320312 H 33.007812 V -131.34375 c 0,-2.34375 -0.976562,-3.80859 -3.222656,-3.80859 h -19.53125 c -2.148437,0 -3.222656,1.46484 -3.222656,3.80859 V -3.710938 C 7.03125,-1.367188 8.105469,0 10.351562,0 Z m 0,0" id="path17" inkscape:label="path17" transform="translate(134.02408,135.15234)"></path>
  </g>
  <g clip-path="url(#f1e8dd0ef9)" id="g27" transform="matrix(0.76905169,0,0,0.92316962,-22.516022,-103.49932)" style="fill:#ffffff">
    <rect style="fill:#ffffff;fill-opacity:1;stroke-width:0.387879" id="rect2491" width="243.26097" height="40.267384" x="66.055756" y="167.11993"></rect>
  </g>
  <g id="g2939">
    <path d="m 2.898438,-9.171875 c 0,-0.554687 0.34375,-1.054687 0.941406,-1.054687 0.589844,0 0.929687,0.5 0.929687,1.054687 v 4.226563 H 2.898438 Z m 4.21875,-0.132813 c 0,-1.6875 -1.53125,-3.046874 -3.285157,-3.046874 -1.757812,0 -3.277343,1.359374 -3.277343,3.046874 V -0.34375 C 0.554688,-0.15625 0.648438,0 0.78125,0 h 1.855469 c 0.210937,0 0.261719,-0.148438 0.261719,-0.34375 v -2.554688 h 1.871093 v 2.546876 C 4.769531,-0.167969 4.875,0 5.050781,0 h 1.785157 c 0.199218,0 0.28125,-0.175781 0.28125,-0.351562 z m 0,0" id="path109" transform="translate(200.73858,75.902351)"></path>
    <path stroke-linecap="butt" fill="none" stroke-linejoin="miter" d="M 28.132812,50.121108 H 215.63274" stroke="#080b1c" stroke-width="1.50028" stroke-opacity="1" stroke-miterlimit="4" id="path117"></path>
    <path stroke-linecap="butt" fill="none" stroke-linejoin="miter" d="M 28.132812,88.933614 H 215.63274" stroke="#080b1c" stroke-width="1.50028" stroke-opacity="1" stroke-miterlimit="4" id="path119"></path>
    <path d="M 5.710938,-6.105469 C 6.640625,-6.878906 7.1875,-8.03125 7.1875,-9.523438 v -2.257812 c 0,-0.15625 -0.082031,-0.378906 -0.316406,-0.378906 h -1.625 c -0.203125,0 -0.40625,0.140625 -0.40625,0.40625 v 1.96875 c 0,1.484375 -0.421875,2.511718 -1.871094,2.632812 v -4.664062 c 0,-0.210938 -0.085938,-0.34375 -0.289062,-0.34375 h -1.75 c -0.191407,0 -0.296876,0.132812 -0.296876,0.34375 V -0.332031 C 0.632812,-0.121094 0.730469,0 0.929688,0 H 2.6875 C 2.890625,0 2.96875,-0.121094 2.96875,-0.332031 V -4.945312 C 4.515625,-4.875 4.964844,-3.832031 4.964844,-2.3125 v 1.917969 C 4.964844,-0.132812 5.15625,0 5.359375,0 h 1.632813 c 0.230468,0 0.316406,-0.210938 0.316406,-0.367188 v -2.214843 c 0,-1.554688 -0.585938,-2.75 -1.597656,-3.523438 z m 0,0" id="path101" transform="translate(183.75684,75.902351)"></path>
    <path d="m 6.835938,0 c 0.191406,0 0.28125,-0.175781 0.28125,-0.351562 v -8.953126 c 0,-1.6875 -1.53125,-3.046874 -3.285157,-3.046874 -1.757812,0 -3.277343,1.359374 -3.277343,3.046874 V -0.34375 C 0.554688,-0.15625 0.648438,0 0.78125,0 h 1.855469 c 0.199219,0 0.261719,-0.148438 0.261719,-0.34375 v -8.828125 c 0,-0.554687 0.34375,-1.054687 0.941406,-1.054687 0.589844,0 0.929687,0.5 0.929687,1.054687 v 8.820313 C 4.769531,-0.167969 4.875,0 5.050781,0 Z m 0,0" id="path93" transform="translate(166.81902,75.902351)"></path>
    <path d="m 4.8125,-4.882812 c 1.214844,-0.398438 2.121094,-1.40625 2.121094,-2.875 v -4.207032 c 0,-0.125 -0.070313,-0.195312 -0.1875,-0.195312 h -1.96875 c -0.128906,0 -0.191406,0.08984 -0.191406,0.203125 v 4.128906 c 0,0.554687 -0.332032,1 -0.941407,1 -0.605469,0 -0.929687,-0.5 -0.929687,-1.050781 v -4.09375 c 0,-0.09766 -0.078125,-0.1875 -0.21875,-0.1875 H 0.5625 c -0.132812,0 -0.183594,0.08984 -0.183594,0.203125 l -0.011718,4.199219 c 0,1.433593 0.898437,2.460937 2.109374,2.863281 V -0.34375 C 2.476562,-0.121094 2.554688,0 2.742188,0 H 4.558594 C 4.742188,0 4.8125,-0.121094 4.8125,-0.34375 Z m 0,0" id="path85" transform="translate(150.25009,75.902351)"></path>
    <path d="m 5.859375,-10.023438 c 0.148437,0 0.253906,-0.105468 0.253906,-0.316406 v -1.503906 c 0,-0.210938 -0.105469,-0.316406 -0.253906,-0.316406 H 0.246094 c -0.1484378,0 -0.2539065,0.117187 -0.2539065,0.328125 v 1.492187 c 0,0.210938 0.1054687,0.316406 0.2539065,0.316406 h 1.632812 v 9.714844 C 1.878906,-0.105469 1.984375,0 2.136719,0 h 1.835937 c 0.140625,0 0.253906,-0.105469 0.253906,-0.308594 v -9.714844 z m 0,0" id="path77" transform="translate(134.88448,75.902351)"></path>
    <path d="m 2.898438,-9.171875 c 0,-0.554687 0.34375,-1.054687 0.941406,-1.054687 0.589844,0 0.929687,0.5 0.929687,1.054687 v 4.226563 H 2.898438 Z m 4.21875,-0.132813 c 0,-1.6875 -1.53125,-3.046874 -3.285157,-3.046874 -1.757812,0 -3.277343,1.359374 -3.277343,3.046874 V -0.34375 C 0.554688,-0.15625 0.648438,0 0.78125,0 h 1.855469 c 0.210937,0 0.261719,-0.148438 0.261719,-0.34375 v -2.554688 h 1.871093 v 2.546876 C 4.769531,-0.167969 4.875,0 5.050781,0 h 1.785157 c 0.199218,0 0.28125,-0.175781 0.28125,-0.351562 z m 0,0" id="path69" transform="translate(117.94666,75.902351)"></path>
    <path d="m 5.9375,0 c 0.160156,0 0.246094,-0.105469 0.246094,-0.316406 v -1.503906 c 0,-0.210938 -0.085938,-0.296876 -0.246094,-0.296876 H 2.96875 v -9.699218 c 0,-0.210938 -0.085938,-0.34375 -0.289062,-0.34375 H 0.921875 c -0.191406,0 -0.289063,0.132812 -0.289063,0.34375 V -0.332031 C 0.632812,-0.121094 0.730469,0 0.929688,0 Z m 0,0" id="path61" transform="translate(102.3,75.902351)"></path>
    <path d="m 4.929688,-6.703125 c 0,-0.148437 -0.117188,-0.246094 -0.230469,-0.246094 h -4.03125 c -0.097657,0 -0.230469,0.097657 -0.230469,0.253907 v 1.214843 c 0,0.175781 0.160156,0.253907 0.222656,0.253907 h 4.03125 c 0.097656,0 0.238282,-0.105469 0.238282,-0.246094 z m 0,0" id="path53" transform="translate(87.654636,75.902351)"></path>
    <path d="m 4.859375,-7.527344 c 0,0.59375 -0.371094,0.992188 -1.074219,0.992188 H 2.96875 v -3.488282 h 0.878906 c 0.605469,0 1.011719,0.402344 1.011719,1.035157 z m 1.949219,7.5195315 c 0.238281,0 0.316406,-0.2109375 0.316406,-0.3710935 v -1.582032 c 0,-1.753906 -0.386719,-2.863281 -1.175781,-3.53125 0.710937,-0.472656 1.253906,-1.195312 1.253906,-2.238281 v -1.257812 c 0,-1.746094 -1.359375,-3.171875 -3.171875,-3.171875 H 0.929688 c -0.183594,0 -0.296876,0.132812 -0.296876,0.34375 V -0.324219 C 0.632812,-0.121094 0.71875,0 0.921875,0 H 2.679688 C 2.871094,0 2.96875,-0.121094 2.96875,-0.324219 v -4.402343 c 1.203125,0.078124 1.820312,0.789062 1.820312,2.484374 v 1.839844 c 0,0.261719 0.199219,0.3945315 0.402344,0.3945315 z m 0,0" id="path45" style="display:inline" transform="translate(70.708036,75.902351)"></path>
    <path d="m 59.437234,69.796882 c 0.929687,-0.773437 1.476562,-1.925781 1.476562,-3.417969 v -2.257812 c 0,-0.15625 -0.08203,-0.378906 -0.316406,-0.378906 h -1.625 c -0.203125,0 -0.40625,0.140625 -0.40625,0.40625 v 1.96875 c 0,1.484375 -0.421875,2.511718 -1.871094,2.632812 v -4.664062 c 0,-0.210938 -0.08594,-0.34375 -0.289062,-0.34375 h -1.75 c -0.191407,0 -0.296876,0.132812 -0.296876,0.34375 V 75.57032 c 0,0.210937 0.09766,0.332031 0.296876,0.332031 h 1.757812 c 0.203125,0 0.28125,-0.121094 0.28125,-0.332031 v -4.613281 c 1.546875,0.07031 1.996094,1.113281 1.996094,2.632812 v 1.917969 c 0,0.261719 0.191406,0.394531 0.394531,0.394531 h 1.632813 c 0.230468,0 0.316406,-0.210938 0.316406,-0.367188 V 73.32032 c 0,-1.554688 -0.585938,-2.75 -1.597656,-3.523438 z m 0,0" id="path37" style="display:inline"></path>
    <path d="m 4.769531,-2.988281 c 0,0.554687 -0.339843,1.0625 -0.929687,1.0625 -0.597656,0 -0.941406,-0.507813 -0.941406,-1.0625 v -8.828125 c 0,-0.183594 -0.050782,-0.34375 -0.261719,-0.34375 H 0.78125 c -0.121094,0 -0.226562,0.160156 -0.226562,0.34375 v 8.960937 c 0,1.6875 1.519531,3.046875 3.277343,3.046875 1.753907,0 3.285157,-1.359375 3.285157,-3.046875 v -8.953125 c 0,-0.175781 -0.089844,-0.351562 -0.28125,-0.351562 H 5.050781 c -0.183593,0 -0.28125,0.167968 -0.28125,0.351562 z m 0,0" id="path29" transform="translate(36.788476,75.902351)"></path>
  </g>
</svg>